<svg width="80" height="692" viewBox="0 0 80 692" fill="none" xmlns="http://www.w3.org/2000/svg">
<circle cx="40" cy="40" r="39" fill="white" stroke="#2387D8" stroke-width="2"/>
<rect x="41" y="78" width="541" height="1.99998" rx="0.999988" transform="rotate(90 41 78)" fill="#2387D8"/>
<circle cx="40" cy="188" r="39" fill="white" stroke="#2387D8" stroke-width="2"/>
<circle cx="40" cy="316" r="39" fill="white" stroke="#2387D8" stroke-width="2"/>
<circle cx="40" cy="504" r="39" fill="white" stroke="#2387D8" stroke-width="2"/>
<circle cx="40" cy="652" r="39" fill="white" stroke="#2387D8" stroke-width="2"/>
<path d="M32.9688 40.3906H36.3914C36.6695 40.3906 36.9289 40.5398 37.068 40.7812L37.9703 42.3438C38.3938 43.0773 39.1531 43.5156 40 43.5156C40.8469 43.5156 41.6062 43.0773 42.0297 42.3438L42.932 40.7812C43.0711 40.5398 43.3305 40.3906 43.6086 40.3906H47.0312C48.3234 40.3906 49.375 39.3391 49.375 38.0469V29.4531C49.375 28.1609 48.3234 27.1094 47.0312 27.1094H32.9688C31.6766 27.1094 30.625 28.1609 30.625 29.4531V38.0469C30.625 39.3391 31.6766 40.3906 32.9688 40.3906ZM32.1875 29.4531C32.1875 29.0219 32.5383 28.6719 32.9688 28.6719H47.0312C47.4617 28.6719 47.8125 29.0219 47.8125 29.4531V38.0469C47.8125 38.4781 47.4617 38.8281 47.0312 38.8281H43.6086C42.7742 38.8281 41.9961 39.2773 41.5789 40L40.6766 41.5625C40.4734 41.9148 40.1359 41.9531 40 41.9531C39.8641 41.9531 39.5273 41.9148 39.3234 41.5625L38.4211 40C38.0039 39.2773 37.2258 38.8281 36.3914 38.8281H32.9688C32.5383 38.8281 32.1875 38.4781 32.1875 38.0469V29.4531Z" fill="#2387D8"/>
<path d="M23.1484 37.2062H22.4766C20.0773 37.2062 18.125 39.1578 18.125 41.557V50.7148C18.125 52.1305 19.2766 53.2812 20.6914 53.2812H24.9344C26.3492 53.2812 27.5008 52.1297 27.5008 50.7148V41.557C27.5008 39.1578 25.5477 37.2062 23.1484 37.2062ZM25.9375 50.7148C25.9375 51.2687 25.4875 51.7187 24.9336 51.7187H20.6906C20.1375 51.7187 19.6867 51.2687 19.6867 50.7148V41.557C19.6867 40.0195 20.9383 38.7687 22.4758 38.7687H23.1477C24.6852 38.7687 25.9367 40.0203 25.9367 41.557V50.7148H25.9375Z" fill="#2387D8"/>
<path d="M22.8125 35.3359C25.1883 35.3359 27.1211 33.4031 27.1211 31.0273C27.1211 28.6516 25.1883 26.718 22.8125 26.718C20.4367 26.718 18.5039 28.6516 18.5039 31.0273C18.5039 33.4031 20.4367 35.3359 22.8125 35.3359ZM22.8125 28.2812C24.3266 28.2812 25.5586 29.5133 25.5586 31.0281C25.5586 32.543 24.3266 33.7742 22.8125 33.7742C21.2984 33.7742 20.0664 32.5422 20.0664 31.0281C20.0664 29.5141 21.2984 28.2812 22.8125 28.2812Z" fill="#2387D8"/>
<path d="M57.5234 37.2062H56.8516C54.4523 37.2062 52.5 39.1578 52.5 41.557V50.7148C52.5 52.1305 53.6516 53.2812 55.0664 53.2812H59.3094C60.7242 53.2812 61.8758 52.1297 61.8758 50.7148V41.557C61.8758 39.1578 59.9227 37.2062 57.5234 37.2062ZM60.3125 50.7148C60.3125 51.2687 59.8625 51.7187 59.3086 51.7187H55.0656C54.5125 51.7187 54.0617 51.2687 54.0617 50.7148V41.557C54.0617 40.0195 55.3133 38.7687 56.8508 38.7687H57.5227C59.0602 38.7687 60.3117 40.0203 60.3117 41.557L60.3125 50.7148Z" fill="#2387D8"/>
<path d="M57.1875 35.3359C59.5633 35.3359 61.4961 33.4031 61.4961 31.0273C61.4961 28.6516 59.5633 26.718 57.1875 26.718C54.8117 26.718 52.8789 28.6516 52.8789 31.0273C52.8789 33.4031 54.8117 35.3359 57.1875 35.3359ZM57.1875 28.2812C58.7016 28.2812 59.9336 29.5133 59.9336 31.0281C59.9336 32.543 58.7016 33.7742 57.1875 33.7742C55.6734 33.7742 54.4414 32.5422 54.4414 31.0281C54.4414 29.5141 55.6734 28.2812 57.1875 28.2812Z" fill="#2387D8"/>
<path d="M48.5938 46.25H31.4062C30.1141 46.25 29.0625 47.3016 29.0625 48.5938V50.9375C29.0625 52.2297 30.1141 53.2812 31.4062 53.2812H48.5938C49.8859 53.2812 50.9375 52.2297 50.9375 50.9375V48.5938C50.9375 47.3016 49.8859 46.25 48.5938 46.25ZM49.375 50.9375C49.375 51.3688 49.0242 51.7188 48.5938 51.7188H31.4062C30.9758 51.7188 30.625 51.3688 30.625 50.9375V48.5938C30.625 48.1625 30.9758 47.8125 31.4062 47.8125H48.5938C49.0242 47.8125 49.375 48.1625 49.375 48.5938V50.9375Z" fill="#2387D8"/>
<path d="M35.3125 32.1875H44.6875C45.1187 32.1875 45.4688 31.8383 45.4688 31.4062C45.4688 30.9742 45.1187 30.625 44.6875 30.625H35.3125C34.8813 30.625 34.5312 30.9742 34.5312 31.4062C34.5312 31.8383 34.8813 32.1875 35.3125 32.1875Z" fill="#2387D8"/>
<path d="M35.3125 36.0938H44.6875C45.1187 36.0938 45.4688 35.7445 45.4688 35.3125C45.4688 34.8805 45.1187 34.5312 44.6875 34.5312H35.3125C34.8813 34.5312 34.5312 34.8805 34.5312 35.3125C34.5312 35.7445 34.8813 36.0938 35.3125 36.0938Z" fill="#2387D8"/>
<path d="M54.8438 194.25H52.5C52.4985 191.993 51.8862 189.779 50.7281 187.843C49.5699 185.906 47.9091 184.319 45.9219 183.25C45.9219 183.25 45.8828 183.25 45.8672 183.25C45.4224 183.011 44.9632 182.799 44.4922 182.617C44.9875 181.892 45.301 181.059 45.4062 180.188H46.25C46.8103 180.177 47.3482 179.965 47.7661 179.592C48.184 179.219 48.4543 178.708 48.528 178.152C48.6017 177.597 48.4739 177.033 48.1678 176.564C47.8617 176.094 47.3975 175.75 46.8594 175.594C46.9721 175.316 47.0305 175.019 47.0312 174.719V171.937C47.6178 171.59 48.0745 171.059 48.3315 170.427C48.5885 169.796 48.6318 169.097 48.4547 168.439C48.2777 167.78 47.89 167.197 47.3509 166.78C46.8117 166.362 46.1507 166.132 45.4688 166.125H34.5312C33.8493 166.132 33.1883 166.362 32.6491 166.78C32.11 167.197 31.7223 167.78 31.5453 168.439C31.3682 169.097 31.4115 169.796 31.6685 170.427C31.9255 171.059 32.3822 171.59 32.9688 171.937V174.719C32.9695 175.019 33.0279 175.316 33.1406 175.594C32.6025 175.75 32.1383 176.094 31.8322 176.564C31.5261 177.033 31.3983 177.597 31.472 178.152C31.5457 178.708 31.816 179.219 32.2339 179.592C32.6518 179.965 33.1897 180.177 33.75 180.188H34.5938C34.718 181.046 35.0447 181.863 35.5469 182.57C35.0759 182.753 34.6166 182.964 34.1719 183.203C34.1719 183.203 34.1328 183.203 34.1172 183.203C32.1156 184.271 30.4423 185.863 29.2766 187.809C28.1109 189.755 27.4968 191.982 27.5 194.25H25.1562C24.5346 194.25 23.9385 194.497 23.499 194.936C23.0594 195.376 22.8125 195.972 22.8125 196.594V198.156C22.813 198.529 22.9026 198.897 23.0738 199.229C23.245 199.56 23.4929 199.846 23.7969 200.062L28.1094 203.188L29.5469 208.234C29.6976 208.714 29.9984 209.132 30.405 209.427C30.8115 209.723 31.3022 209.88 31.8047 209.875H48.2109C48.7214 209.876 49.2182 209.71 49.6257 209.402C50.0332 209.095 50.3292 208.663 50.4688 208.172L51.9063 203.125L56.2188 200C56.5114 199.788 56.7511 199.511 56.9192 199.192C57.0872 198.872 57.1791 198.517 57.1875 198.156V196.594C57.1875 195.972 56.9406 195.376 56.501 194.936C56.0615 194.497 55.4654 194.25 54.8438 194.25ZM50.9375 194.25H47.8125V191.125C47.8125 190.918 47.7302 190.719 47.5837 190.573C47.4372 190.426 47.2385 190.344 47.0312 190.344C46.824 190.344 46.6253 190.426 46.4788 190.573C46.3323 190.719 46.25 190.918 46.25 191.125V194.25H40.7812V190.203C41.2371 190.042 41.632 189.744 41.9118 189.349C42.1915 188.955 42.3424 188.484 42.3438 188V187.594C43.7374 187.106 44.939 186.187 45.7734 184.969C47.3518 185.95 48.6542 187.317 49.5577 188.94C50.4612 190.564 50.9361 192.392 50.9375 194.25ZM36.7734 183.805C37.0672 184.024 37.3842 184.21 37.7188 184.359C37.6783 184.528 37.6573 184.701 37.6562 184.875V185.906C36.8504 185.524 36.1503 184.95 35.6172 184.234C35.995 184.072 36.3809 183.928 36.7734 183.805ZM36.0938 177.062H43.9062V179.406C43.905 179.951 43.7896 180.49 43.5676 180.988C43.3456 181.486 43.0218 181.932 42.6172 182.297L42.5547 182.352C42.2231 182.641 41.8455 182.874 41.4375 183.039C41.0304 182.711 40.5231 182.531 40 182.531C39.4769 182.531 38.9696 182.711 38.5625 183.039C38.1545 182.874 37.7769 182.641 37.4453 182.352L37.3828 182.297C36.9782 181.932 36.6544 181.486 36.4324 180.988C36.2104 180.49 36.095 179.951 36.0938 179.406V177.062ZM44.3828 184.234C43.8497 184.95 43.1496 185.524 42.3438 185.906V184.875C42.3427 184.701 42.3217 184.528 42.2812 184.359C42.6158 184.21 42.9328 184.024 43.2266 183.805C43.6191 183.928 44.005 184.072 44.3828 184.234ZM40 188.781C39.7928 188.781 39.5941 188.699 39.4476 188.552C39.3011 188.406 39.2188 188.207 39.2188 188V184.875C39.2188 184.668 39.3011 184.469 39.4476 184.323C39.5941 184.176 39.7928 184.094 40 184.094C40.2072 184.094 40.4059 184.176 40.5524 184.323C40.6989 184.469 40.7812 184.668 40.7812 184.875V188C40.7812 188.207 40.6989 188.406 40.5524 188.552C40.4059 188.699 40.2072 188.781 40 188.781ZM46.25 178.625H45.4688V177.062H46.25C46.4572 177.062 46.6559 177.145 46.8024 177.291C46.9489 177.438 47.0312 177.637 47.0312 177.844C47.0312 178.051 46.9489 178.25 46.8024 178.396C46.6559 178.543 46.4572 178.625 46.25 178.625ZM34.5312 167.688H45.4688C45.8832 167.688 46.2806 167.852 46.5736 168.145C46.8666 168.438 47.0312 168.836 47.0312 169.25C47.0312 169.664 46.8666 170.062 46.5736 170.355C46.2806 170.648 45.8832 170.812 45.4688 170.812H34.5312C34.1168 170.812 33.7194 170.648 33.4264 170.355C33.1334 170.062 32.9688 169.664 32.9688 169.25C32.9688 168.836 33.1334 168.438 33.4264 168.145C33.7194 167.852 34.1168 167.688 34.5312 167.688ZM45.4688 172.375V174.719C45.4688 174.926 45.3864 175.125 45.2399 175.271C45.0934 175.418 44.8947 175.5 44.6875 175.5H35.3125C35.1053 175.5 34.9066 175.418 34.7601 175.271C34.6136 175.125 34.5312 174.926 34.5312 174.719V172.375H45.4688ZM32.9688 177.844C32.9688 177.637 33.0511 177.438 33.1976 177.291C33.3441 177.145 33.5428 177.062 33.75 177.062H34.5312V178.625H33.75C33.5428 178.625 33.3441 178.543 33.1976 178.396C33.0511 178.25 32.9688 178.051 32.9688 177.844ZM34.2266 184.969C35.061 186.187 36.2626 187.106 37.6562 187.594V188C37.6576 188.484 37.8085 188.955 38.0882 189.349C38.368 189.744 38.7629 190.042 39.2188 190.203V194.25H33.75V191.125C33.75 190.918 33.6677 190.719 33.5212 190.573C33.3747 190.426 33.176 190.344 32.9688 190.344C32.7615 190.344 32.5628 190.426 32.4163 190.573C32.2698 190.719 32.1875 190.918 32.1875 191.125V194.25H29.0625C29.0639 192.392 29.5388 190.564 30.4423 188.94C31.3458 187.317 32.6482 185.95 34.2266 184.969ZM48.9453 207.742C48.8981 207.911 48.7953 208.059 48.6536 208.163C48.5118 208.266 48.3394 208.319 48.1641 208.312H31.7578C31.5825 208.319 31.41 208.266 31.2683 208.163C31.1266 208.059 31.0238 207.911 30.9766 207.742L28.7422 199.93C28.7095 199.814 28.7038 199.693 28.7254 199.575C28.7471 199.457 28.7956 199.346 28.8672 199.25C28.94 199.153 29.0343 199.074 29.1428 199.02C29.2513 198.966 29.3709 198.938 29.4922 198.938H50.3516C50.4728 198.938 50.5925 198.966 50.7009 199.02C50.8094 199.074 50.9038 199.153 50.9766 199.25C51.0481 199.346 51.0966 199.457 51.1183 199.575C51.14 199.693 51.1343 199.814 51.1016 199.93L48.9453 207.742ZM55.625 198.156C55.6257 198.282 55.5962 198.405 55.5391 198.517C55.482 198.628 55.3989 198.724 55.2969 198.797L52.5859 200.734L52.6797 200.383C52.783 200.033 52.8033 199.664 52.7389 199.305C52.6745 198.946 52.5272 198.607 52.3087 198.315C52.0903 198.023 51.8066 197.786 51.4804 197.623C51.1542 197.459 50.7944 197.375 50.4297 197.375H29.5703C29.2082 197.376 28.8512 197.46 28.5273 197.622C28.2033 197.784 27.9213 198.019 27.7033 198.308C27.4854 198.597 27.3373 198.933 27.2709 199.289C27.2044 199.645 27.2213 200.011 27.3203 200.359L27.4141 200.711L24.7031 198.773C24.6043 198.703 24.5231 198.611 24.4662 198.504C24.4092 198.396 24.378 198.278 24.375 198.156V196.594C24.375 196.387 24.4573 196.188 24.6038 196.041C24.7503 195.895 24.949 195.812 25.1562 195.812H54.8438C55.0509 195.812 55.2497 195.895 55.3962 196.041C55.5427 196.188 55.625 196.387 55.625 196.594V198.156Z" fill="#2387D8"/>
<path d="M31.7771 309.059H30.3584C29.9264 309.059 29.5771 309.409 29.5771 309.841C29.5771 310.273 29.9264 310.622 30.3584 310.622H31.7771C32.2092 310.622 32.5584 310.273 32.5584 309.841C32.5584 309.409 32.2092 309.059 31.7771 309.059Z" fill="#2387D8"/>
<path d="M26.7191 302.961C29.1176 302.961 31.0691 300.979 31.0691 298.543C31.0691 296.107 29.1176 294.126 26.7191 294.126C24.3207 294.126 22.3691 296.107 22.3691 298.543C22.3691 300.979 24.3207 302.961 26.7191 302.961ZM26.7191 295.688C28.2566 295.688 29.5066 296.969 29.5066 298.542C29.5066 300.116 28.2559 301.398 26.7191 301.398C25.1824 301.398 23.9316 300.116 23.9316 298.542C23.9316 296.968 25.1824 295.688 26.7191 295.688Z" fill="#2387D8"/>
<path d="M54.8439 303.458H51.7189C48.9486 303.458 46.5541 305.072 45.4096 307.406H34.5916C33.4463 305.073 31.0525 303.458 28.2822 303.458H25.1572C21.2799 303.458 18.126 306.612 18.126 310.489V310.991C18.126 312.459 19.3197 313.652 20.7869 313.652H26.0205L34.733 328.744C32.7408 329.987 31.4072 332.191 31.4072 334.708V335.21C31.4072 336.677 32.601 337.871 34.0682 337.871H45.9338C47.401 337.871 48.5947 336.677 48.5947 335.21V334.708C48.5947 332.191 47.2619 329.986 45.2689 328.744L53.9814 313.652H59.215C60.6822 313.652 61.876 312.459 61.876 310.991V310.489C61.876 306.612 58.7213 303.458 54.8439 303.458ZM20.7861 312.09C20.1807 312.09 19.6877 311.597 19.6877 310.991V310.489C19.6877 307.887 21.5174 305.706 23.9572 305.157L25.7158 312.09H20.7861ZM25.5361 305.023H27.9025L26.7197 309.688L25.5361 305.023ZM29.4807 305.157C31.2572 305.556 32.7064 306.822 33.3643 308.485C33.3658 308.488 33.3666 308.491 33.3674 308.495C33.6111 309.113 33.7494 309.784 33.7494 310.489V310.991C33.7494 311.597 33.2564 312.09 32.651 312.09H27.7213L29.4807 305.157ZM34.0674 336.309C33.4619 336.309 32.9689 335.816 32.9689 335.21V334.708C32.9689 332.105 34.7986 329.925 37.2385 329.376L38.9971 336.309H34.0674ZM38.8174 329.242H41.1838L40.001 333.907L38.8174 329.242ZM47.0314 334.708V335.21C47.0314 335.816 46.5385 336.309 45.933 336.309H41.0033L42.7619 329.376C45.2018 329.925 47.0314 332.105 47.0314 334.708ZM43.8541 328.068C43.1346 327.819 42.3658 327.677 41.5627 327.677H38.4377C37.6346 327.677 36.8658 327.82 36.1463 328.068L27.8244 313.652H32.6518C34.1189 313.652 35.3127 312.459 35.3127 310.991V310.489C35.3127 309.966 35.251 309.459 35.1424 308.969H44.858C44.7494 309.459 44.6877 309.966 44.6877 310.489V310.991C44.6877 312.459 45.8814 313.652 47.3486 313.652H52.176L43.8541 328.068ZM47.3486 312.09C46.7432 312.09 46.2502 311.597 46.2502 310.991V310.489C46.2502 309.785 46.3885 309.114 46.6322 308.495C46.6338 308.491 46.6346 308.488 46.6361 308.485C47.2947 306.821 48.7439 305.557 50.5197 305.157L52.2783 312.09H47.3494H47.3486ZM53.2814 309.688L52.0986 305.023H54.465L53.2814 309.688ZM60.3127 310.991C60.3127 311.597 59.8197 312.09 59.2143 312.09H54.2846L56.0432 305.157C58.483 305.706 60.3127 307.886 60.3127 310.489V310.991Z" fill="#2387D8"/>
<path d="M56.9199 309.059C56.4879 309.059 56.1387 309.409 56.1387 309.841C56.1387 310.273 56.4879 310.622 56.9199 310.622H58.3387C58.7707 310.622 59.1199 310.273 59.1199 309.841C59.1199 309.409 58.7707 309.059 58.3387 309.059H56.9199Z" fill="#2387D8"/>
<path d="M53.2816 302.961C55.6801 302.961 57.6316 300.979 57.6316 298.543C57.6316 296.107 55.6801 294.126 53.2816 294.126C50.8832 294.126 48.9316 296.107 48.9316 298.543C48.9316 300.979 50.8832 302.961 53.2816 302.961ZM53.2816 295.688C54.8191 295.688 56.0691 296.969 56.0691 298.542C56.0691 300.116 54.8184 301.398 53.2816 301.398C51.7449 301.398 50.4941 300.116 50.4941 298.542C50.4941 296.968 51.7449 295.688 53.2816 295.688Z" fill="#2387D8"/>
<path d="M43.6387 333.278C43.2066 333.278 42.8574 333.627 42.8574 334.059C42.8574 334.491 43.2066 334.841 43.6387 334.841H45.0574C45.4895 334.841 45.8387 334.491 45.8387 334.059C45.8387 333.627 45.4895 333.278 45.0574 333.278H43.6387Z" fill="#2387D8"/>
<path d="M40.0004 318.344C37.602 318.344 35.6504 320.325 35.6504 322.761C35.6504 325.197 37.602 327.179 40.0004 327.179C42.3988 327.179 44.3504 325.197 44.3504 322.761C44.3504 320.325 42.3988 318.344 40.0004 318.344ZM40.0004 325.617C38.4629 325.617 37.2129 324.336 37.2129 322.762C37.2129 321.187 38.4637 319.907 40.0004 319.907C41.5371 319.907 42.7879 321.188 42.7879 322.762C42.7879 324.335 41.5371 325.617 40.0004 325.617Z" fill="#2387D8"/>
<path d="M63.4375 489.586C63.3372 488.719 63.0602 487.882 62.6234 487.127C62.1867 486.372 61.5996 485.714 60.8984 485.195C60.4243 484.857 59.8651 484.658 59.284 484.621C58.7028 484.584 58.1228 484.71 57.6094 484.984C57.0662 485.261 56.6101 485.683 56.2916 486.202C55.9731 486.722 55.8046 487.32 55.8047 487.93V488.898H29.3906V484.852C29.4138 484.342 29.3335 483.833 29.1545 483.356C28.9756 482.878 28.7016 482.442 28.3493 482.073C27.997 481.704 27.5736 481.411 27.1047 481.21C26.6358 481.01 26.1311 480.906 25.6211 480.906C25.1111 480.906 24.6064 481.01 24.1375 481.21C23.6686 481.411 23.2452 481.704 22.8929 482.073C22.5405 482.442 22.2666 482.878 22.0876 483.356C21.9087 483.833 21.8284 484.342 21.8516 484.852V488.898H20.6641C19.5776 488.898 18.5355 489.329 17.7666 490.097C16.9976 490.864 16.5646 491.906 16.5625 492.992V522.828C16.5646 523.915 16.9976 524.956 17.7666 525.723C18.5355 526.491 19.5776 526.922 20.6641 526.922H57.8047C58.7303 526.922 59.6417 526.694 60.459 526.26C61.2763 525.825 61.9744 525.197 62.4922 524.43C63.0956 523.499 63.4158 522.414 63.4141 521.305V489.68C63.4141 489.68 63.4141 489.641 63.4141 489.625C63.4141 489.609 63.4375 489.594 63.4375 489.586ZM23.4141 484.852C23.3962 484.551 23.44 484.249 23.5428 483.966C23.6456 483.683 23.8052 483.423 24.0119 483.204C24.2186 482.985 24.468 482.81 24.7447 482.69C25.0215 482.571 25.3197 482.509 25.6211 482.509C25.9225 482.509 26.2207 482.571 26.4974 482.69C26.7742 482.81 27.0235 482.985 27.2302 483.204C27.4369 483.423 27.5966 483.683 27.6994 483.966C27.8022 484.249 27.846 484.551 27.8281 484.852V485.984H23.4141V484.852ZM23.4141 487.547H27.8281V498.484C27.8281 498.555 27.8001 498.622 27.7503 498.672C27.7005 498.722 27.6329 498.75 27.5625 498.75H23.6562C23.5858 498.75 23.5182 498.722 23.4684 498.672C23.4186 498.622 23.3906 498.555 23.3906 498.484L23.4141 487.547ZM27.1953 500.289L25.5859 505.344L24.0234 500.297L27.1953 500.289ZM61.1641 523.602C60.7878 524.144 60.2857 524.588 59.7006 524.894C59.1155 525.2 58.465 525.36 57.8047 525.359H20.6641C19.992 525.359 19.3474 525.093 18.8714 524.618C18.3955 524.144 18.1271 523.5 18.125 522.828V492.992C18.1271 492.32 18.3955 491.676 18.8714 491.202C19.3474 490.727 19.992 490.461 20.6641 490.461H21.8516V498.461C21.8511 498.829 21.9628 499.189 22.1719 499.492C22.1643 499.523 22.1643 499.555 22.1719 499.586L24.0625 505.797C24.1467 506.13 24.3386 506.427 24.6084 506.64C24.8782 506.853 25.2108 506.972 25.5547 506.977C25.8955 506.973 26.2257 506.858 26.4951 506.649C26.7645 506.44 26.9583 506.149 27.0469 505.82L29.0391 499.57C29.0391 499.531 29.0391 499.492 29.0391 499.453C29.2494 499.153 29.3613 498.796 29.3594 498.43V490.461H55.7656V518.133C55.7603 518.955 56.0641 519.75 56.6168 520.359C57.1695 520.968 57.9308 521.347 58.75 521.422C59.2197 521.434 59.6793 521.561 60.0881 521.793C60.4969 522.024 60.8423 522.353 61.0938 522.75C61.1727 522.876 61.2203 523.019 61.2325 523.167C61.2448 523.315 61.2213 523.464 61.1641 523.602ZM61.875 521.258C61.0691 520.443 59.9946 519.949 58.8516 519.867C58.4326 519.817 58.0474 519.612 57.7715 519.293C57.4955 518.973 57.3486 518.563 57.3594 518.141V487.93C57.3593 487.606 57.4491 487.288 57.6187 487.012C57.7884 486.737 58.0312 486.513 58.3203 486.367C58.588 486.224 58.891 486.159 59.1939 486.181C59.4969 486.203 59.7873 486.311 60.0312 486.492C60.5435 486.882 60.9712 487.371 61.2882 487.931C61.6052 488.492 61.8048 489.11 61.875 489.75V521.258ZM44.4531 509.586C43.5801 509.586 42.7267 509.845 42.0008 510.33C41.2749 510.815 40.7092 511.504 40.3751 512.311C40.041 513.117 39.9536 514.005 40.1239 514.861C40.2942 515.717 40.7146 516.504 41.3319 517.121C41.9492 517.739 42.7357 518.159 43.592 518.329C44.4482 518.5 45.3357 518.412 46.1423 518.078C46.9489 517.744 47.6383 517.178 48.1233 516.452C48.6083 515.726 48.8672 514.873 48.8672 514C48.8651 512.83 48.3994 511.708 47.5721 510.881C46.7447 510.054 45.6232 509.588 44.4531 509.586ZM44.4531 516.852C43.8891 516.852 43.3378 516.684 42.8689 516.371C42.3999 516.058 42.0345 515.612 41.8186 515.091C41.6028 514.57 41.5463 513.997 41.6564 513.444C41.7664 512.891 42.038 512.382 42.4368 511.984C42.8356 511.585 43.3437 511.313 43.8968 511.203C44.45 511.093 45.0233 511.15 45.5444 511.365C46.0654 511.581 46.5108 511.947 46.8241 512.416C47.1374 512.885 47.3047 513.436 47.3047 514C47.3026 514.756 47.0015 515.48 46.4672 516.014C45.9329 516.548 45.2088 516.849 44.4531 516.852ZM52.625 513.078C52.8708 512.935 53.0861 512.745 53.2584 512.519C53.4308 512.293 53.5568 512.035 53.6294 511.76C53.7019 511.485 53.7196 511.198 53.6813 510.916C53.643 510.634 53.5495 510.363 53.4062 510.117L52.2891 508.18C52.1446 507.931 51.9523 507.714 51.7235 507.54C51.4946 507.366 51.2336 507.239 50.9555 507.167C50.6774 507.094 50.3877 507.077 50.103 507.117C49.8184 507.157 49.5444 507.252 49.2969 507.398C49.2072 507.452 49.1046 507.48 49 507.48C48.8954 507.48 48.7928 507.452 48.7031 507.398C48.4844 507.266 48.2578 507.133 48.0312 507.016C47.9333 506.959 47.853 506.877 47.7992 506.778C47.7454 506.678 47.7202 506.566 47.7266 506.453C47.7245 505.88 47.4958 505.331 47.0905 504.925C46.6851 504.52 46.1358 504.291 45.5625 504.289H43.3359C43.0484 504.291 42.764 504.35 42.4993 504.462C42.2346 504.575 41.9948 504.738 41.7936 504.944C41.5925 505.15 41.434 505.393 41.3273 505.66C41.2206 505.927 41.1677 506.212 41.1719 506.5C41.1739 506.606 41.1465 506.71 41.0927 506.801C41.0389 506.892 40.9608 506.966 40.8672 507.016C40.6406 507.133 40.4141 507.266 40.2031 507.398C40.1075 507.456 39.9981 507.486 39.8867 507.486C39.7753 507.486 39.666 507.456 39.5703 507.398C39.0737 507.111 38.4835 507.032 37.9287 507.178C37.374 507.325 36.8996 507.685 36.6094 508.18L35.4922 510.117C35.2166 510.621 35.152 511.214 35.3125 511.766C35.3896 512.045 35.5211 512.305 35.6994 512.533C35.8777 512.761 36.0994 512.952 36.3516 513.094C36.4507 513.153 36.5317 513.238 36.5855 513.34C36.6393 513.442 36.6638 513.557 36.6562 513.672C36.6562 513.781 36.6562 513.891 36.6562 514C36.6562 514.109 36.6562 514.219 36.6562 514.328C36.6636 514.448 36.6366 514.568 36.5785 514.673C36.5204 514.778 36.4335 514.864 36.3281 514.922C36.0823 515.065 35.867 515.255 35.6947 515.481C35.5224 515.707 35.3963 515.965 35.3238 516.24C35.2512 516.515 35.2336 516.802 35.2718 517.084C35.3101 517.366 35.4036 517.637 35.5469 517.883L36.6641 519.82C36.8078 520.07 36.9996 520.288 37.2284 520.462C37.4572 520.637 37.7184 520.764 37.9968 520.837C38.2752 520.909 38.5652 520.926 38.8501 520.886C39.135 520.845 39.409 520.749 39.6562 520.602C39.7474 520.548 39.8513 520.52 39.957 520.52C40.0628 520.52 40.1666 520.548 40.2578 520.602C40.472 520.741 40.6937 520.869 40.9219 520.984C41.0211 521.039 41.1025 521.121 41.1565 521.221C41.2104 521.321 41.2348 521.434 41.2266 521.547C41.2266 522.121 41.4546 522.671 41.8604 523.077C42.2662 523.483 42.8167 523.711 43.3906 523.711H45.625C46.1969 523.695 46.7393 523.453 47.1343 523.039C47.5293 522.625 47.7449 522.072 47.7344 521.5C47.7335 521.393 47.7613 521.289 47.815 521.197C47.8686 521.104 47.946 521.028 48.0391 520.977C48.2656 520.859 48.4922 520.734 48.7109 520.594C48.806 520.535 48.9156 520.504 49.0273 520.504C49.1391 520.504 49.2487 520.535 49.3438 520.594C49.8397 520.879 50.428 520.956 50.9809 520.81C51.5338 520.664 52.0067 520.305 52.2969 519.812L53.4141 517.875C53.6928 517.376 53.763 516.787 53.6093 516.237C53.4556 515.687 53.0906 515.22 52.5938 514.937C52.4948 514.879 52.4143 514.794 52.3618 514.691C52.3093 514.589 52.2868 514.474 52.2969 514.359C52.2969 514.25 52.2969 514.141 52.2969 514.031C52.2969 513.922 52.2969 513.812 52.2969 513.703C52.2822 513.578 52.3057 513.451 52.3643 513.34C52.4228 513.228 52.5137 513.137 52.625 513.078ZM52.0625 517.102L50.9375 519.039C50.8951 519.11 50.839 519.171 50.7726 519.219C50.7061 519.268 50.6306 519.303 50.5506 519.322C50.4705 519.34 50.3875 519.343 50.3063 519.33C50.2252 519.316 50.1476 519.286 50.0781 519.242C49.7409 519.043 49.3549 518.941 48.9632 518.948C48.5715 518.955 48.1894 519.07 47.8594 519.281C47.6797 519.391 47.5078 519.492 47.3203 519.586C46.9639 519.77 46.6665 520.051 46.462 520.397C46.2576 520.742 46.1543 521.138 46.1641 521.539C46.1641 521.618 46.1485 521.696 46.1183 521.769C46.088 521.842 46.0437 521.909 45.9879 521.964C45.932 522.02 45.8657 522.065 45.7927 522.095C45.7197 522.125 45.6415 522.141 45.5625 522.141H43.3359C43.2539 522.14 43.1728 522.122 43.0977 522.089C43.0226 522.056 42.9549 522.008 42.8987 521.948C42.8425 521.889 42.799 521.818 42.7708 521.741C42.7425 521.664 42.7302 521.582 42.7344 521.5C42.7299 521.11 42.6182 520.729 42.4115 520.398C42.2048 520.067 41.9111 519.8 41.5625 519.625C41.3828 519.531 41.2031 519.43 41.0312 519.32C40.6958 519.104 40.3055 518.987 39.9062 518.984C39.5082 518.991 39.1184 519.098 38.7734 519.297C38.7054 519.337 38.6301 519.364 38.5517 519.374C38.4734 519.385 38.3937 519.38 38.3173 519.36C38.2408 519.34 38.1693 519.304 38.1067 519.256C38.0442 519.207 37.992 519.147 37.9531 519.078L36.875 517.102C36.8354 517.032 36.8101 516.956 36.8007 516.877C36.7914 516.797 36.798 516.717 36.8203 516.641C36.868 516.478 36.9773 516.341 37.125 516.258C37.4749 516.058 37.7616 515.764 37.9522 515.409C38.1429 515.054 38.2298 514.652 38.2031 514.25V513.75C38.2279 513.342 38.1369 512.936 37.9406 512.578C37.7443 512.22 37.4507 511.925 37.0938 511.727C36.9589 511.644 36.861 511.512 36.8203 511.359C36.798 511.283 36.7914 511.203 36.8007 511.123C36.8101 511.044 36.8354 510.968 36.875 510.898L38 508.961C38.0417 508.891 38.097 508.83 38.1628 508.781C38.2285 508.733 38.3033 508.698 38.3828 508.679C38.4622 508.66 38.5446 508.657 38.6252 508.671C38.7057 508.684 38.7827 508.714 38.8516 508.758C39.1867 508.963 39.5719 509.071 39.9648 509.071C40.3577 509.071 40.743 508.963 41.0781 508.758C41.2489 508.643 41.4263 508.539 41.6094 508.445C41.9658 508.261 42.2632 507.98 42.4677 507.635C42.6721 507.289 42.7754 506.893 42.7656 506.492C42.7656 506.333 42.829 506.18 42.9418 506.067C43.0546 505.954 43.2076 505.891 43.3672 505.891H45.6016C45.684 505.893 45.7652 505.911 45.8403 505.945C45.9155 505.979 45.9831 506.027 46.0392 506.088C46.0953 506.148 46.1387 506.219 46.1668 506.297C46.195 506.374 46.2073 506.457 46.2031 506.539C46.2004 506.933 46.307 507.319 46.5112 507.656C46.7153 507.993 47.009 508.266 47.3594 508.445C47.545 508.539 47.725 508.643 47.8984 508.758C48.238 508.966 48.6288 509.077 49.0273 509.077C49.4259 509.077 49.8167 508.966 50.1562 508.758C50.2903 508.69 50.4447 508.675 50.5893 508.716C50.7339 508.756 50.8581 508.849 50.9375 508.977L52.0547 510.914C52.0944 510.986 52.1194 511.065 52.1283 511.146C52.1371 511.227 52.1297 511.31 52.1065 511.388C52.0832 511.467 52.0445 511.54 51.9927 511.603C51.9409 511.667 51.877 511.719 51.8047 511.758C51.4578 511.961 51.1737 512.256 50.9835 512.61C50.7933 512.964 50.7044 513.364 50.7266 513.766C50.7266 513.852 50.7266 513.93 50.7266 514.016C50.7266 514.102 50.7266 514.187 50.7266 514.266C50.7057 514.674 50.7984 515.079 50.9942 515.438C51.1901 515.797 51.4814 516.094 51.8359 516.297C51.9706 516.375 52.0696 516.503 52.1118 516.653C52.1541 516.804 52.1364 516.964 52.0625 517.102ZM46.6328 496.398H35.1172C34.91 496.398 34.7113 496.316 34.5648 496.17C34.4182 496.023 34.3359 495.824 34.3359 495.617C34.3359 495.41 34.4182 495.211 34.5648 495.065C34.7113 494.918 34.91 494.836 35.1172 494.836H46.6328C47.6688 494.836 48.6624 495.247 49.395 495.98C50.1275 496.713 50.5391 497.706 50.5391 498.742V503.43C50.5391 503.637 50.4568 503.836 50.3102 503.982C50.1637 504.129 49.965 504.211 49.7578 504.211C49.5506 504.211 49.3519 504.129 49.2054 503.982C49.0589 503.836 48.9766 503.637 48.9766 503.43V498.742C48.9766 498.121 48.7296 497.524 48.2901 497.085C47.8506 496.645 47.2544 496.398 46.6328 496.398ZM32.9688 519.461C32.9688 519.668 32.8864 519.867 32.7399 520.013C32.5934 520.16 32.3947 520.242 32.1875 520.242H28.7422C27.7062 520.242 26.7126 519.831 25.9801 519.098C25.2475 518.366 24.8359 517.372 24.8359 516.336V510.758C24.8359 510.551 24.9182 510.352 25.0648 510.205C25.2113 510.059 25.41 509.977 25.6172 509.977C25.8244 509.977 26.0231 510.059 26.1696 510.205C26.3161 510.352 26.3984 510.551 26.3984 510.758V516.336C26.3984 516.958 26.6454 517.554 27.0849 517.993C27.5244 518.433 28.1206 518.68 28.7422 518.68H32.1875C32.3947 518.68 32.5934 518.762 32.7399 518.909C32.8864 519.055 32.9688 519.254 32.9688 519.461Z" fill="#2387D8"/>
<path d="M32.0912 661.048H26.0326C21.6717 661.048 18.124 664.596 18.124 668.957V671.209C18.124 672.676 19.3178 673.87 20.785 673.87H29.0295C29.0404 673.87 29.0498 673.875 29.0607 673.875C29.0717 673.875 29.0811 673.87 29.092 673.87H37.3365C38.8037 673.87 39.9975 672.676 39.9975 671.209V668.957C39.9975 664.596 36.4498 661.048 32.0889 661.048H32.0912ZM20.7857 672.307C20.1803 672.307 19.6873 671.814 19.6873 671.209V668.957C19.6873 665.598 22.3107 662.849 25.6146 662.632L28.0576 672.307H20.7857ZM29.0623 669.902L27.2209 662.611H30.9037L29.0623 669.902ZM38.4373 671.209C38.4373 671.814 37.9443 672.307 37.3389 672.307H30.067L32.51 662.632C35.8139 662.849 38.4373 665.598 38.4373 668.957V671.209Z" fill="#2387D8"/>
<path d="M24.3309 666.68H22.4863C22.0551 666.68 21.7051 667.03 21.7051 667.462C21.7051 667.894 22.0551 668.243 22.4863 668.243H24.3309C24.7621 668.243 25.1121 667.894 25.1121 667.462C25.1121 667.03 24.7621 666.68 24.3309 666.68Z" fill="#2387D8"/>
<path d="M24.3309 668.964H22.4863C22.0551 668.964 21.7051 669.313 21.7051 669.745C21.7051 670.177 22.0551 670.527 22.4863 670.527H24.3309C24.7621 670.527 25.1121 670.177 25.1121 669.745C25.1121 669.313 24.7621 668.964 24.3309 668.964Z" fill="#2387D8"/>
<path d="M29.0627 659.924C32.0518 659.924 34.4838 657.446 34.4838 654.4C34.4838 651.354 32.0518 648.876 29.0627 648.876C26.0736 648.876 23.6416 651.354 23.6416 654.4C23.6416 657.446 26.0736 659.924 29.0627 659.924ZM29.0627 650.437C31.19 650.437 32.9213 652.215 32.9213 654.399C32.9213 656.584 31.19 658.361 29.0627 658.361C26.9354 658.361 25.2041 656.584 25.2041 654.399C25.2041 652.215 26.9354 650.437 29.0627 650.437Z" fill="#2387D8"/>
<path d="M53.9662 642.298H47.9076C43.5467 642.298 39.999 645.846 39.999 650.207V652.459C39.999 653.926 41.1928 655.12 42.66 655.12H50.9045C50.9154 655.12 50.9248 655.125 50.9357 655.125C50.9467 655.125 50.9561 655.12 50.967 655.12H59.2115C60.6787 655.12 61.8725 653.926 61.8725 652.459V650.207C61.8725 645.846 58.3248 642.298 53.9639 642.298H53.9662ZM42.6607 653.557C42.0553 653.557 41.5623 653.064 41.5623 652.459V650.207C41.5623 646.848 44.1857 644.099 47.4896 643.882L49.9326 653.557H42.6607ZM50.9373 651.152L49.0959 643.861H52.7787L50.9373 651.152ZM60.3123 652.459C60.3123 653.064 59.8193 653.557 59.2139 653.557H51.942L54.385 643.882C57.6889 644.099 60.3123 646.848 60.3123 650.207V652.459Z" fill="#2387D8"/>
<path d="M57.5135 647.93H55.6689C55.2377 647.93 54.8877 648.28 54.8877 648.712C54.8877 649.144 55.2377 649.493 55.6689 649.493H57.5135C57.9447 649.493 58.2947 649.144 58.2947 648.712C58.2947 648.28 57.9447 647.93 57.5135 647.93Z" fill="#2387D8"/>
<path d="M57.5135 650.214H55.6689C55.2377 650.214 54.8877 650.563 54.8877 650.995C54.8877 651.427 55.2377 651.777 55.6689 651.777H57.5135C57.9447 651.777 58.2947 651.427 58.2947 650.995C58.2947 650.563 57.9447 650.214 57.5135 650.214Z" fill="#2387D8"/>
<path d="M50.9377 641.174C53.9268 641.174 56.3588 638.696 56.3588 635.65C56.3588 632.604 53.9268 630.126 50.9377 630.126C47.9486 630.126 45.5166 632.604 45.5166 635.65C45.5166 638.696 47.9486 641.174 50.9377 641.174ZM50.9377 631.687C53.065 631.687 54.7963 633.465 54.7963 635.649C54.7963 637.834 53.065 639.611 50.9377 639.611C48.8104 639.611 47.0791 637.834 47.0791 635.649C47.0791 633.465 48.8104 631.687 50.9377 631.687Z" fill="#2387D8"/>
<path d="M29.0627 646.531C29.4939 646.531 29.8439 646.182 29.8439 645.75V638.719C29.8439 637.427 30.8955 636.375 32.1877 636.375H35.3127V636.495C35.3127 637.343 35.751 638.102 36.4846 638.526C36.8518 638.737 37.2541 638.843 37.6564 638.843C38.0588 638.843 38.4611 638.737 38.8283 638.526L40.3908 637.624C41.1244 637.2 41.5627 636.441 41.5627 635.594C41.5627 635.549 41.5619 635.506 41.5596 635.462C41.5166 634.671 41.0893 633.97 40.3979 633.567C40.3955 633.566 40.3939 633.565 40.3916 633.563L38.8291 632.662C38.0955 632.239 37.2189 632.239 36.4854 632.662C35.7518 633.086 35.3135 633.845 35.3135 634.692V634.812H32.1885C30.0346 634.812 28.2822 636.565 28.2822 638.719V645.75C28.2822 646.182 28.6314 646.531 29.0627 646.531ZM36.8752 634.692C36.8752 634.285 37.1486 634.084 37.2658 634.016C37.3838 633.948 37.6963 633.812 38.0471 634.016L39.6096 634.917C39.9619 635.121 40.0002 635.458 40.0002 635.594C40.0002 635.73 39.9619 636.066 39.6096 636.27L38.0471 637.172C37.6955 637.376 37.3838 637.24 37.2658 637.172C37.1486 637.104 36.8752 636.902 36.8752 636.495V634.692Z" fill="#2387D8"/>
<path d="M54.8438 657.469C54.4125 657.469 54.0625 657.818 54.0625 658.25V665.281C54.0625 666.573 53.0109 667.625 51.7188 667.625H48.5938V667.505C48.5938 666.657 48.1555 665.898 47.4219 665.474C46.6883 665.052 45.8117 665.052 45.0781 665.474L43.5156 666.376C42.782 666.8 42.3438 667.559 42.3438 668.406C42.3438 668.451 42.3445 668.494 42.3469 668.537C42.3898 669.329 42.8172 670.03 43.5086 670.433C43.5109 670.434 43.5125 670.435 43.5148 670.437L45.0773 671.338C45.4445 671.55 45.8469 671.655 46.2492 671.655C46.6516 671.655 47.0547 671.549 47.4211 671.338C48.1547 670.914 48.593 670.155 48.593 669.308V669.188H51.718C53.8719 669.188 55.6242 667.435 55.6242 665.281V658.25C55.6242 657.818 55.275 657.469 54.8438 657.469ZM47.0312 669.308C47.0312 669.715 46.7578 669.916 46.6406 669.984C46.5234 670.052 46.2109 670.188 45.8594 669.984L44.2969 669.083C43.9445 668.879 43.9062 668.542 43.9062 668.406C43.9062 668.27 43.9445 667.934 44.2969 667.73L45.8594 666.828C46.2102 666.624 46.5234 666.76 46.6406 666.828C46.7578 666.896 47.0312 667.098 47.0312 667.505V669.308Z" fill="#2387D8"/>
</svg>
