<svg width="195" height="34" viewBox="0 0 195 34" fill="none" xmlns="http://www.w3.org/2000/svg">
<g id="logo crea jovem 6">
<g id="Group">
<path id="Vector" d="M8.17168 19.2566L6.96771 27.7818C6.93446 28.0157 6.85878 28.2003 6.74182 28.3333C6.62487 28.4675 6.44829 28.534 6.21552 28.534C6.01486 28.534 5.86465 28.4755 5.76375 28.3586C5.66284 28.2416 5.62959 28.0501 5.66284 27.7818L8.72321 6.2182C8.75646 5.98428 8.83099 5.80082 8.94909 5.66667C9.06605 5.53366 9.22543 5.46601 9.42495 5.46601C9.65886 5.46601 9.82627 5.54168 9.92603 5.69189C10.0258 5.8421 10.059 6.01754 10.0258 6.2182L8.77251 15.0438H14.289L15.5927 5.71712C15.8599 3.77816 15.5755 2.34028 14.7396 1.40463C13.9037 0.468974 12.3993 0 10.2264 0C8.12008 0 6.49874 0.4598 5.36242 1.3794C4.22496 2.299 3.52322 3.74491 3.25606 5.71712L0.0970791 28.2829C-0.170087 30.2562 0.114279 31.701 0.949028 32.6206C1.78378 33.5402 3.27211 34 5.41173 34C7.61785 34 9.27359 33.531 10.3767 32.5954C11.4797 31.6597 12.1643 30.2218 12.4326 28.2829L13.6858 19.2566H8.17168Z" fill="white"/>
<path id="Vector_2" d="M27.528 17.2762C28.247 16.3566 28.6896 15.2627 28.857 13.9911L30.0105 5.81677C30.2444 4.11173 29.9096 2.79998 29.0072 1.88038C28.1048 0.960777 26.6669 0.500977 24.6947 0.500977H23.8921H23.7923H18.3768L13.7627 33.4977H19.2792L21.1103 20.3985C21.1722 20.3905 21.233 20.3813 21.2938 20.3733L21.6355 33.4965H27.2517L25.8379 18.8276C26.4858 18.4034 27.0499 17.8874 27.528 17.2762ZM23.1284 5.96813H23.6925C23.9597 5.96813 24.1443 6.04381 24.2441 6.19402C24.345 6.34422 24.361 6.60336 24.2945 6.97143L23.3417 13.8914C23.3084 14.2262 23.2247 14.5014 23.0906 14.7192C22.9564 14.9371 22.781 15.1045 22.5643 15.2203C22.3636 15.3281 22.1102 15.3843 21.8109 15.3923L23.1284 5.96813Z" fill="white"/>
<path id="Vector_3" d="M34.5616 28.0326L35.8309 18.9559H40.1664L40.9185 13.5392H36.5877L37.6472 5.96796H42.4734L43.2256 0.501953H38.4109H38.3616H32.8955L28.2815 33.4986H33.7475H33.798H38.6115L39.4142 28.0326H34.5616Z" fill="white"/>
<path id="Vector_4" d="M46.9121 0.501953L39.7915 33.4986H45.4582L46.4477 27.9317H48.3374L47.764 33.4986H53.3803L55.5371 0.501953H46.9121ZM48.9004 22.4657H47.4201L50.9368 2.69317L48.9004 22.4657Z" fill="white"/>
</g>
<path id="Vector_5" d="M174.857 15.796C174.857 15.7295 174.824 15.663 174.757 15.5954L174.657 15.4452C173.888 14.1747 173.354 13.1313 173.052 12.3114C172.752 11.4927 172.651 10.6648 172.752 9.82895L173.303 6.2182C173.336 5.98428 173.411 5.80082 173.529 5.66667C173.646 5.53366 173.805 5.46601 174.006 5.46601C174.24 5.46601 174.407 5.53366 174.507 5.66667C174.607 5.80082 174.64 5.98543 174.607 6.2182L173.804 11.6338H179.321L180.174 5.71597C180.474 3.81027 180.199 2.38156 179.346 1.42871C178.493 0.475853 176.98 0 174.808 0C172.701 0 171.088 0.451774 169.969 1.35417C168.849 2.25658 168.139 3.71051 167.837 5.71712L167.336 9.42763C167.068 11.2324 167.177 12.8045 167.662 14.1414C168.146 15.4784 168.923 16.9828 169.994 18.6546L170.144 19.0055C170.879 20.2427 171.406 21.2792 171.724 22.1151C172.042 22.951 172.134 23.7537 172.001 24.5219L171.549 27.7818C171.516 28.0157 171.44 28.2003 171.323 28.3333C171.205 28.4675 171.029 28.534 170.797 28.534C170.596 28.534 170.446 28.4755 170.345 28.3586C170.245 28.2416 170.211 28.0501 170.245 27.7818L170.947 22.6667H165.43L164.678 28.2829C164.411 30.2562 164.703 31.701 165.555 32.6206C166.408 33.5402 167.904 34 170.043 34C172.183 34 173.804 33.5402 174.907 32.6206C176.01 31.701 176.712 30.2562 177.014 28.2829L177.465 24.9232C177.733 23.1849 177.633 21.6565 177.165 20.3344C176.695 19.0146 175.926 17.5011 174.857 15.796Z" fill="white"/>
<path id="Vector_6" d="M193.537 1.40463C192.701 0.468974 191.196 0 189.024 0C186.917 0 185.296 0.4598 184.16 1.3794C183.023 2.299 182.32 3.74491 182.053 5.71712L178.894 28.2829C178.627 30.2562 178.911 31.701 179.747 32.6206C180.582 33.5402 182.07 34 184.21 34C186.416 34 188.071 33.531 189.175 32.5954C190.278 31.6597 190.963 30.2218 191.231 28.2829L192.484 19.2566H186.968L185.764 27.7818C185.73 28.0157 185.655 28.2003 185.538 28.3333C185.42 28.4675 185.244 28.534 185.011 28.534C184.811 28.534 184.661 28.4755 184.56 28.3586C184.46 28.2416 184.426 28.0501 184.46 27.7818L187.519 6.2182C187.552 5.98428 187.627 5.80082 187.745 5.66667C187.862 5.53366 188.021 5.46601 188.222 5.46601C188.456 5.46601 188.623 5.54168 188.723 5.69189C188.823 5.8421 188.856 6.01754 188.823 6.2182L187.57 15.0438H193.086L194.39 5.71712C194.657 3.77816 194.373 2.34028 193.537 1.40463Z" fill="white"/>
<g id="Group_2">
<path id="Vector_7" d="M68.1935 1.94238C67.5732 1.94238 67.0423 2.38957 66.938 3.00187L63.662 22.2573C63.2515 24.6687 61.6371 25.3819 59.8025 25.3819C58.9482 25.3819 58.063 25.2477 57.2088 25.0253L54.3938 33.1503C55.7227 33.2398 57.1457 33.3739 58.6008 33.3739C63.4407 33.3739 68.4068 31.9005 70.0201 22.2562L73.405 1.94238H68.1935Z" fill="#CFE533"/>
<g id="Group_3">
<path id="Vector_8" d="M89.4511 11.33C89.0154 11.33 88.7081 10.9011 88.848 10.4883L91.3992 2.98475C90.0003 1.47578 87.6004 1.13867 84.3176 1.13867C77.643 1.13867 74.069 2.83569 72.4866 12.3447L70.7472 22.7929C69.166 32.303 72.1702 33.9989 78.8138 33.9989C85.4883 33.9989 89.0314 32.6149 90.6447 22.7929L92.3842 12.3447C92.4426 11.995 92.4942 11.6579 92.5401 11.33H89.4511ZM86.0249 12.3459L84.2855 22.794C83.9381 24.8476 82.7983 26.1422 80.1416 26.1422C77.4848 26.1422 76.7888 24.8476 77.1041 22.794L78.8447 12.3459C79.1921 10.2923 80.3307 8.9977 82.9886 8.9977C85.6775 8.99656 86.3735 10.2923 86.0249 12.3459Z" fill="#CFE533"/>
</g>
<path id="Vector_9" d="M127.301 20.9512L128.733 13.9475H121.25L121.543 11.5235L115.257 11.4112C115.103 11.4089 114.969 11.5167 114.939 11.6669L110.657 33.1949H126.669L128.074 26.1041H118.721L119.783 20.9512H127.301Z" fill="#CFE533"/>
<path id="Vector_10" d="M157.621 15.2788H161.195L163.981 1.924H157.545C157.43 1.924 157.324 1.98592 157.267 2.08567L145.918 22.2252C145.844 22.357 145.645 22.3203 145.622 22.1713L142.469 1.92285H136.181C136.031 1.92285 135.9 2.02834 135.869 2.17626L129.396 33.195H135.98L138.945 19.2772L140.77 33.195H146.494L153.697 19.1877L150.872 33.195H157.457L159.787 22.0302H156.512L157.621 15.2788Z" fill="#CFE533"/>
<path id="Vector_11" d="M111.918 10.0687H131.408C131.952 10.0687 132.436 9.72247 132.612 9.20763L135.1 1.94255H115.066H109.823H107.687C107.551 1.94255 107.43 2.02855 107.386 2.15697L101.194 20.1993C101.078 20.5375 100.578 20.4573 100.575 20.0995L100.377 2.25673C100.375 2.08244 100.234 1.94141 100.059 1.94141H92.9449C92.8096 1.94141 92.688 2.0274 92.6445 2.15583L90.0496 9.64564C89.9785 9.85204 90.131 10.0676 90.35 10.0676H93.7131C93.8828 10.0676 94.0227 10.2006 94.0307 10.3692L95.0902 30.9616C95.1854 32.7033 96.7345 33.1493 98.6964 33.1493C100.657 33.1493 102.366 32.7033 103.062 30.9616L111.622 10.2637C111.673 10.1467 111.79 10.0687 111.918 10.0687Z" fill="#CFE533"/>
</g>
<path id="Vector_12" d="M157.47 21.0117H166.631L167.283 16.2979H158.285L157.47 21.0117Z" fill="#CFE533"/>
</g>
</svg>
